<?xml version="1.0" encoding="UTF-8"?>
<svg xmlns="http://www.w3.org/2000/svg" xmlns:xlink="http://www.w3.org/1999/xlink" width="48px" height="48px" viewBox="0 -5 48 48" version="1.1">
<g id="surface1">
<path style=" stroke:none;fill-rule:nonzero;fill:rgb(0%,0%,0%);fill-opacity:1;" d="M 26.398438 9.601562 C 26.398438 10.925781 25.324219 12 24 12 C 22.675781 12 21.601562 10.925781 21.601562 9.601562 C 21.601562 8.273438 22.675781 7.199219 24 7.199219 C 25.324219 7.199219 26.398438 8.273438 26.398438 9.601562 "/>
<path style=" stroke:none;fill-rule:nonzero;fill:rgb(0%,0%,0%);fill-opacity:1;" d="M 24 14.398438 C 22.015625 14.398438 20.398438 16.015625 20.398438 18 L 27.601562 18 C 27.601562 16.015625 25.984375 14.398438 24 14.398438 Z M 24 14.398438 "/>
<path style=" stroke:none;fill-rule:nonzero;fill:rgb(0%,0%,0%);fill-opacity:1;" d="M 34.800781 0 L 13.199219 0 C 11.214844 0 9.601562 1.613281 9.601562 3.601562 L 9.601562 34.800781 C 9.601562 36.785156 11.214844 38.398438 13.199219 38.398438 L 34.800781 38.398438 C 36.785156 38.398438 38.398438 36.785156 38.398438 34.800781 L 38.398438 3.601562 C 38.398438 1.613281 36.785156 0 34.800781 0 Z M 19.199219 32.398438 C 19.199219 33.0625 18.664062 33.601562 18 33.601562 L 15.601562 33.601562 C 14.9375 33.601562 14.398438 33.0625 14.398438 32.398438 L 14.398438 30 C 14.398438 29.335938 14.9375 28.800781 15.601562 28.800781 L 18 28.800781 C 18.664062 28.800781 19.199219 29.335938 19.199219 30 Z M 19.199219 26.398438 C 19.199219 27.0625 18.664062 27.601562 18 27.601562 L 15.601562 27.601562 C 14.9375 27.601562 14.398438 27.0625 14.398438 26.398438 L 14.398438 24 C 14.398438 23.335938 14.9375 22.800781 15.601562 22.800781 L 18 22.800781 C 18.664062 22.800781 19.199219 23.335938 19.199219 24 Z M 18 19.199219 L 18 18 C 18 15.933594 19.050781 14.105469 20.648438 13.027344 C 19.757812 12.152344 19.199219 10.941406 19.199219 9.601562 C 19.199219 6.953125 21.351562 4.800781 24 4.800781 C 26.648438 4.800781 28.800781 6.953125 28.800781 9.601562 C 28.800781 10.941406 28.242188 12.152344 27.351562 13.027344 C 28.949219 14.105469 30 15.933594 30 18 L 30 19.199219 C 30 19.863281 29.460938 20.398438 28.800781 20.398438 L 19.199219 20.398438 C 18.539062 20.398438 18 19.863281 18 19.199219 Z M 32.398438 32.398438 L 22.800781 32.398438 C 22.136719 32.398438 21.601562 31.863281 21.601562 31.199219 C 21.601562 30.539062 22.136719 30 22.800781 30 L 32.398438 30 C 33.0625 30 33.601562 30.539062 33.601562 31.199219 C 33.601562 31.863281 33.0625 32.398438 32.398438 32.398438 Z M 32.398438 26.398438 L 22.800781 26.398438 C 22.136719 26.398438 21.601562 25.863281 21.601562 25.199219 C 21.601562 24.539062 22.136719 24 22.800781 24 L 32.398438 24 C 33.0625 24 33.601562 24.539062 33.601562 25.199219 C 33.601562 25.863281 33.0625 26.398438 32.398438 26.398438 Z M 32.398438 26.398438 "/>
</g>
</svg>
